<?xml version="1.0" encoding="UTF-8"?>
<svg version="1.1" xmlns="http://www.w3.org/2000/svg" width="500" height="500">
<path d="M0 0 C165 0 330 0 500 0 C500 165 500 330 500 500 C335 500 170 500 0 500 C0 335 0 170 0 0 Z " fill="#FEFEFE" transform="translate(0,0)"/>
<path d="M0 0 C1.65 0.99 3.3 1.98 5 3 C5.99 2.34 6.98 1.68 8 1 C14.73171746 -0.02829077 20.45108352 1.03098335 26 5 C30.85746884 10.11312509 32.54569246 14.42866587 32.37109375 21.40234375 C31.62368372 26.63421395 29.12307024 30.33954429 24.9921875 33.5703125 C18.09899527 38.0216359 12.1424466 38.70891948 4 38 C-2.68667174 36.31820074 -7.25726905 32.76113229 -11 27 C-12.9225412 21.2323764 -13.02086212 15.12025209 -10.375 9.625 C-7.72755286 6.69887421 -5.17439346 4.34629082 -2 2 C-1.34 2 -0.68 2 0 2 C0 1.34 0 0.68 0 0 Z " fill="#F9F9F9" transform="translate(88,153)"/>
<path d="M0 0 C1.69479492 -0.00580078 1.69479492 -0.00580078 3.42382812 -0.01171875 C4.59494141 -0.00011719 5.76605469 0.01148438 6.97265625 0.0234375 C8.72352539 0.00603516 8.72352539 0.00603516 10.50976562 -0.01171875 C17.26352272 0.01137102 22.50935874 0.10713483 27.6796875 4.93359375 C32.26935106 10.93546148 32.75404878 14.89562951 32.03515625 22.3984375 C30.6855717 27.06414407 28.8057584 29.77232325 25.03515625 32.8359375 C20.73382569 35.07621383 17.44294922 35.52292524 12.61328125 35.49609375 C11.58847656 35.49287109 10.56367188 35.48964844 9.5078125 35.48632812 C8.44433594 35.47794922 7.38085938 35.46957031 6.28515625 35.4609375 C5.20621094 35.45642578 4.12726563 35.45191406 3.015625 35.44726562 C0.35541242 35.43549477 -2.3046874 35.41905149 -4.96484375 35.3984375 C-4.30484375 34.7384375 -3.64484375 34.0784375 -2.96484375 33.3984375 C-2.59137707 30.19305347 -2.59137707 30.19305347 -2.55078125 26.421875 C-2.5314151 25.7366275 -2.51204895 25.05138 -2.49209595 24.34536743 C-2.43227544 22.15485106 -2.38590619 19.9642822 -2.33984375 17.7734375 C-2.30166612 16.28903948 -2.26261451 14.80466366 -2.22265625 13.3203125 C-2.12657291 9.67989065 -2.04255093 6.03930314 -1.96484375 2.3984375 C-3.23743886 2.85185618 -4.50785618 3.31138977 -5.77734375 3.7734375 C-6.48503906 4.02867187 -7.19273437 4.28390625 -7.921875 4.546875 C-10.21257734 5.4250144 -10.21257734 5.4250144 -12.96484375 7.3984375 C-10.67520034 1.36210488 -6.07450285 0.02005574 0 0 Z " fill="#0F0F0F" transform="translate(249.96484375,154.6015625)"/>
<path d="M0 0 C3.34125 -0.0825 6.6825 -0.165 10.125 -0.25 C11.16672363 -0.28641602 12.20844727 -0.32283203 13.28173828 -0.36035156 C19.13988116 -0.43021209 22.66086302 -0.09846707 27 4 C28.34653512 6.99885709 28.45038853 9.7548929 28 13 C25.8125 16.0625 25.8125 16.0625 23 18 C21.68 18 20.36 18 19 18 C19 18.66 19 19.32 19 20 C19.54914062 20.19980469 20.09828125 20.39960938 20.6640625 20.60546875 C23.94106165 22.56180436 26.02409985 25.37060967 28.375 28.3125 C33.17354549 34.29712665 37.63101421 39.82417932 45.375 41.8125 C46.24898437 42.04582031 47.12296875 42.27914062 48.0234375 42.51953125 C49.00183594 42.75736328 49.00183594 42.75736328 50 43 C47.26612121 45.73387879 45.62809808 45.33109208 41.8125 45.375 C34.89167741 45.23795401 31.35469328 44.14451973 26.37890625 39.48046875 C20.34059763 33.07958271 15.76393937 25.36158036 11 18 C11.61359375 17.69449219 12.2271875 17.38898438 12.859375 17.07421875 C16.19393772 15.41311402 16.19393772 15.41311402 19 13 C19.42685201 9.58518389 19.66565297 7.17468171 17.9375 4.125 C15.10993032 2.48318535 12.21168718 2.40842265 9 2 C9.06876343 6.37882456 9.15667083 10.75671521 9.26245117 15.13476562 C9.29573463 16.62456572 9.32375597 18.11449295 9.34643555 19.60449219 C9.37992071 21.74469252 9.43222789 23.88372419 9.48828125 26.0234375 C9.51446533 27.31169434 9.54064941 28.59995117 9.56762695 29.92724609 C9.71031006 30.94125488 9.85299316 31.95526367 10 33 C10.99 33.66 11.98 34.32 13 35 C8.05 35 3.1 35 -2 35 C-0.515 34.505 -0.515 34.505 1 34 C0.67 22.78 0.34 11.56 0 0 Z " fill="#0E0E0E" transform="translate(42,155)"/>
<path d="M0 0 C-0.97114746 0.97199341 -0.97114746 0.97199341 -1.96191406 1.96362305 C-4.64744208 5.96457081 -4.60198883 8.87174377 -4.609375 13.58203125 C-4.62591125 14.39621017 -4.64244751 15.2103891 -4.65948486 16.04924011 C-4.70787788 18.6370708 -4.72931568 21.22431426 -4.75 23.8125 C-4.77816708 25.57229503 -4.80809555 27.33206281 -4.83984375 29.09179688 C-4.91363409 33.39448288 -4.9632615 37.69684457 -5 42 C-4.01 42.495 -4.01 42.495 -3 43 C-7.62 43 -12.24 43 -17 43 C-16.01 42.34 -15.02 41.68 -14 41 C-13.61336226 38.37322453 -13.39822401 36.00886319 -13.3125 33.375 C-13.209375 30.94125 -13.10625 28.5075 -13 26 C-18.28 26 -23.56 26 -29 26 C-28.96519531 27.14597656 -28.93039063 28.29195312 -28.89453125 29.47265625 C-28.86637297 31.00258939 -28.83907501 32.53253854 -28.8125 34.0625 C-28.77479492 35.19075195 -28.77479492 35.19075195 -28.73632812 36.34179688 C-28.66718223 41.66603064 -29.5039033 45.27568039 -32 50 C-35.10844567 52.46531898 -38.14012618 52.17544881 -42 52 C-41.34805664 51.19353027 -40.69611328 50.38706055 -40.02441406 49.55615234 C-37.34151502 45.50932552 -37.48733544 41.83199443 -37.609375 37.1015625 C-37.61503479 36.26660248 -37.62069458 35.43164246 -37.62652588 34.57138062 C-37.64879777 31.92198734 -37.69897477 29.27397984 -37.75 26.625 C-37.77007698 24.82163421 -37.78832565 23.01824708 -37.8046875 21.21484375 C-37.84863214 16.80936731 -37.91759399 12.40491806 -38 8 C-34.7 8 -31.4 8 -28 8 C-28.33 13.28 -28.66 18.56 -29 24 C-23.72 24 -18.44 24 -13 24 C-13.11802595 18.95909036 -13.11802595 18.95909036 -13.27026367 13.91918945 C-13.32372735 9.37247722 -12.76524957 6.61505797 -10 3 C-6.79814938 -0.20185062 -4.43899994 -0.30265909 0 0 Z " fill="#101010" transform="translate(206,147)"/>
<path d="M0 0 C5.29421322 0.06059185 9.12858058 1.23042569 13.4375 4.3125 C18.29496884 9.42562509 19.98319246 13.74116587 19.80859375 20.71484375 C19.06118372 25.94671395 16.56057024 29.65204429 12.4296875 32.8828125 C5.53649527 37.3341359 -0.4200534 38.02141948 -8.5625 37.3125 C-15.24917174 35.63070074 -19.81976905 32.07363229 -23.5625 26.3125 C-25.4850412 20.5448764 -25.58336212 14.43275209 -22.9375 8.9375 C-20.26135711 5.97965786 -17.83198567 3.60809632 -14.5625 1.3125 C-13.5725 1.6425 -12.5825 1.9725 -11.5625 2.3125 C-12.2225 3.385 -12.8825 4.4575 -13.5625 5.5625 C-16.55809383 11.59648186 -16.86308946 18.34728823 -14.76171875 24.75390625 C-13.1779155 28.07438951 -11.50700699 31.03812219 -8.5625 33.3125 C-3.51968873 34.17898924 1.03282421 34.11517188 5.5 31.5625 C9.20799103 27.2564459 9.7316353 24.13055586 9.75 18.4375 C9.76675781 17.24382812 9.78351563 16.05015625 9.80078125 14.8203125 C9.34693368 10.43799942 8.17833857 6.79543656 4.75 3.875 C1.07706586 2.98158359 -1.85008221 3.59396753 -5.5625 4.3125 C-8.02528801 6.77528801 -8.56021255 9.01926982 -9.5625 12.3125 C-9.8925 12.3125 -10.2225 12.3125 -10.5625 12.3125 C-10.875 9.625 -10.875 9.625 -10.5625 6.3125 C-8.125 3.5 -8.125 3.5 -5.5625 1.3125 C-3.94996547 -0.30003453 -2.22650957 0.06458577 0 0 Z " fill="#151515" transform="translate(100.5625,153.6875)"/>
<path d="M0 0 C4.05523038 2.85709413 7.51585617 6.46921234 9.75 10.9375 C10.25239048 16.43908755 10.51205731 21.32545569 8.125 26.375 C3.05892717 31.84102595 -1.19719233 35.50284988 -8.79296875 36.15625 C-16.26624785 36.40364131 -21.65616252 35.14280936 -28 31.25 C-31.93599934 27.20466735 -34.42408856 22.64656931 -34.75 16.9375 C-34.42319801 11.57162219 -32.4193503 7.01810415 -28.53125 3.2890625 C-26.6875 1.875 -26.6875 1.875 -23.25 -0.0625 C-22.26 0.2675 -21.27 0.5975 -20.25 0.9375 C-20.89839844 1.76507813 -21.54679687 2.59265625 -22.21484375 3.4453125 C-24.62436223 7.07609377 -24.90264481 10.53366 -24.8125 14.8125 C-24.80589355 15.51705322 -24.79928711 16.22160645 -24.79248047 16.94750977 C-24.58308734 22.64129073 -23.31487885 26.88493896 -19.25 30.9375 C-15.28887464 32.91806268 -10.55724797 32.49146686 -6.25 31.9375 C-2.3247183 29.13372735 -0.76422275 26.42749962 0.75 21.9375 C1.4376713 15.80204306 1.48773344 10.0929944 -2.25 4.9375 C-5.01494501 2.69565269 -6.78888168 2.00337405 -10.3125 1.5 C-13.31092855 1.72230378 -13.31092855 1.72230378 -15.5625 3.5625 C-17.56233339 6.37708033 -17.94029053 8.53069587 -18.25 11.9375 C-18.58 11.9375 -18.91 11.9375 -19.25 11.9375 C-19.97094862 4.84817194 -19.97094862 4.84817194 -16.875 0.9375 C-11.75808864 -2.65161318 -5.65832517 -1.84983708 0 0 Z " fill="#070707" transform="translate(390.25,155.0625)"/>
<path d="M0 0 C10 0 10 0 13.5 2.25 C17.97702866 7.17473153 18.38925733 10.7145001 18.25 17.2421875 C17.79247826 22.28922421 16.24758014 25.52558711 12.9375 29.4375 C10 31 10 31 0 31 C0 20.77 0 10.54 0 0 Z " fill="#FAFAFA" transform="translate(256,157)"/>
<path d="M0 0 C2.68468038 4.02702057 2.68187737 7.2684363 2 12 C-0.07012839 15.47485838 -2.11634312 17.74352278 -6 19 C-9.54375229 19.36914086 -11.33445327 19.4203453 -14.375 17.5 C-15.179375 16.7575 -15.179375 16.7575 -16 16 C-15.67 15.34 -15.34 14.68 -15 14 C-12.69 14.33 -10.38 14.66 -8 15 C-7.07984152 12.23952457 -6.80732755 10.36637731 -6.75 7.5 C-6.72421875 6.7265625 -6.6984375 5.953125 -6.671875 5.15625 C-6.86512765 2.98401156 -6.86512765 2.98401156 -8.015625 1.28125 C-11.16159086 -0.75000355 -14.29454802 -0.69627443 -18 -1 C-17.90655552 3.52104123 -17.8004837 8.04154113 -17.68261719 12.56201172 C-17.64429699 14.10034021 -17.60944944 15.63875925 -17.578125 17.17724609 C-17.53253941 19.38672276 -17.4745366 21.59557448 -17.4140625 23.8046875 C-17.40251129 24.49432587 -17.39096008 25.18396423 -17.37905884 25.89450073 C-17.35048978 29.8920154 -17.35048978 29.8920154 -15 33 C-19.62 33 -24.24 33 -29 33 C-28.01 32.34 -27.02 31.68 -26 31 C-25.53187025 27.92883403 -25.53187025 27.92883403 -25.6015625 24.3125 C-25.59869232 23.65419189 -25.59582214 22.99588379 -25.59286499 22.31762695 C-25.59082324 20.92560974 -25.59636098 19.53356391 -25.60888672 18.14160156 C-25.62494122 16.00781253 -25.60904437 13.87591745 -25.58984375 11.7421875 C-25.59182617 10.39062081 -25.59566981 9.0390553 -25.6015625 7.6875 C-25.60494629 6.45386719 -25.60833008 5.22023437 -25.61181641 3.94921875 C-25.73991699 2.97597656 -25.86801758 2.00273437 -26 1 C-26.99 0.34 -27.98 -0.32 -29 -1 C-19.97864652 -3.28079366 -8.03998798 -5.86701825 0 0 Z " fill="#060606" transform="translate(33,157)"/>
<path d="M0 0 C-1.3921875 0.556875 -1.3921875 0.556875 -2.8125 1.125 C-6.6587227 3.38748394 -7.35367536 4.91014465 -9 9 C-9.43324327 12.18015155 -9.43324327 12.18015155 -9.37109375 15.5 C-9.38849609 16.716875 -9.40589844 17.93375 -9.42382812 19.1875 C-9.43294267 21.72915566 -9.43815104 24.27082833 -9.43945312 26.8125 C-9.61949595 38.53390884 -9.61949595 38.53390884 -14 43 C-18.59584085 46.07033065 -24.60634641 46.93893389 -30 46 C-34.27292768 44.57313366 -37.239814 43.02992942 -39.9375 39.375 C-40.288125 38.59125 -40.63875 37.8075 -41 37 C-41.33 36.34 -41.66 35.68 -42 35 C-42.084915 33.1136088 -42.107193 31.22421485 -42.09765625 29.3359375 C-42.09443359 28.21445313 -42.09121094 27.09296875 -42.08789062 25.9375 C-42.07951172 24.761875 -42.07113281 23.58625 -42.0625 22.375 C-42.05798828 21.19164062 -42.05347656 20.00828125 -42.04882812 18.7890625 C-42.03701467 15.85932493 -42.02054258 12.92968728 -42 10 C-39.03 10 -36.06 10 -33 10 C-33.01571045 10.76143311 -33.0314209 11.52286621 -33.04760742 12.30737305 C-33.11008453 15.7673394 -33.14903172 19.2271869 -33.1875 22.6875 C-33.21263672 23.88568359 -33.23777344 25.08386719 -33.26367188 26.31835938 C-33.27333984 27.47529297 -33.28300781 28.63222656 -33.29296875 29.82421875 C-33.3086792 30.88729248 -33.32438965 31.95036621 -33.34057617 33.0456543 C-32.91837043 36.70809996 -31.62442769 39.37557231 -29 42 C-24.3621284 42.51531907 -20.33165635 42.94190327 -16.4375 40.1875 C-13.9244898 36.36335405 -13.87867629 33.26153897 -13.859375 28.79296875 C-13.84003906 27.56642578 -13.82070313 26.33988281 -13.80078125 25.07617188 C-13.76708215 22.49559835 -13.74870986 19.9147766 -13.74609375 17.33398438 C-13.53668123 6.81376049 -13.53668123 6.81376049 -10.58203125 3.203125 C-4.81332024 -1.71904294 -4.81332024 -1.71904294 0 0 Z " fill="#0D0D0D" transform="translate(449,145)"/>
<path d="M0 0 C0.69287109 0.02255859 1.38574219 0.04511719 2.09960938 0.06835938 C3.79651573 0.12687339 5.49229861 0.2165452 7.1875 0.3125 C7.1875 2.6225 7.1875 4.9325 7.1875 7.3125 C6.6925 6.6525 6.1975 5.9925 5.6875 5.3125 C2.0586728 2.40943824 -0.24462875 2.93808432 -4.8125 3.3125 C-6.10476658 4.41300008 -6.10476658 4.41300008 -6.296875 7.09375 C-6.14277796 10.59039008 -6.14277796 10.59039008 -2.890625 12.65625 C-1.62712747 13.39682943 -0.3502602 14.11496322 0.9375 14.8125 C6.03547258 17.64125308 9.4114901 19.9352919 12.1875 25.3125 C12.65367576 28.50239929 12.17062273 31.2501292 11.1875 34.3125 C8.07494523 38.26628579 4.86732219 40.9321952 -0.1796875 41.6484375 C-5.90715733 41.73765043 -9.37697399 41.31529176 -13.8125 37.3125 C-15.98536582 34.8592644 -16.80219083 33.31764374 -16.8359375 30.02734375 C-16.63773192 27.7112749 -16.4287599 25.55513 -15.8125 23.3125 C-15.1525 22.9825 -14.4925 22.6525 -13.8125 22.3125 C-13.85890625 22.97636719 -13.9053125 23.64023438 -13.953125 24.32421875 C-14.12257852 28.46977809 -14.12186821 31.57590901 -12.5 35.4375 C-8.794341 38.02284349 -5.80097729 37.82933557 -1.37109375 37.78125 C1.53605277 37.248643 2.51528159 36.7254326 4.1875 34.3125 C4.41989871 30.84790765 4.41989871 30.84790765 3.1875 27.3125 C1.19269585 25.31769585 -0.53599302 23.9084018 -2.8125 22.3125 C-4.42107635 21.06817978 -6.02508424 19.81793629 -7.625 18.5625 C-8.39457031 17.96953125 -9.16414063 17.3765625 -9.95703125 16.765625 C-12.77713259 14.55704037 -12.77713259 14.55704037 -13.0859375 12.421875 C-13.11945313 11.64328125 -13.15296875 10.8646875 -13.1875 10.0625 C-13.26097656 8.91007813 -13.26097656 8.91007813 -13.3359375 7.734375 C-11.80101489 0.63249429 -6.34873931 -0.39489766 0 0 Z " fill="#0E0E0E" transform="translate(461.8125,153.6875)"/>
<path d="M0 0 C0 1.65 0 3.3 0 5 C-2.64 4.34 -5.28 3.68 -8 3 C-8 7.62 -8 12.24 -8 17 C-5.6178125 16.8453125 -5.6178125 16.8453125 -3.1875 16.6875 C-2.29417969 16.62949219 -1.40085938 16.57148438 -0.48046875 16.51171875 C2.39404181 16.15561475 2.39404181 16.15561475 5 13 C5 16.63 5 20.26 5 24 C4.01 23.01 3.02 22.02 2 21 C-0.50203648 20.42428504 -0.50203648 20.42428504 -3.1875 20.3125 C-5.5696875 20.1578125 -5.5696875 20.1578125 -8 20 C-8 24.62 -8 29.24 -8 34 C-4.90625 33.8453125 -4.90625 33.8453125 -1.75 33.6875 C-0.58984375 33.62949219 0.5703125 33.57148438 1.765625 33.51171875 C5.14638863 32.97683948 6.56591952 32.34222839 9 30 C10.2516467 27.91665365 10.2516467 27.91665365 11 26 C12 29 12 29 10 36 C0.1 36 -9.8 36 -20 36 C-19.01 35.34 -18.02 34.68 -17 34 C-16.73288596 31.44604513 -16.65150971 29.13725626 -16.70703125 26.5859375 C-16.71339851 25.49147812 -16.71339851 25.49147812 -16.71989441 24.37490845 C-16.73670647 22.04123241 -16.77436132 19.7084156 -16.8125 17.375 C-16.82754366 15.79428329 -16.84123262 14.21355307 -16.85351562 12.6328125 C-16.88661799 8.75487656 -16.93841596 4.87758402 -17 1 C-14.54171921 0.83252588 -12.08338135 0.6659856 -9.625 0.5 C-8.92632812 0.45230469 -8.22765625 0.40460938 -7.5078125 0.35546875 C-2.2265625 0 -2.2265625 0 0 0 Z " fill="#080808" transform="translate(229,154)"/>
<path d="M0 0 C0 2.97 0 5.94 0 9 C-0.53625 8.236875 -1.0725 7.47375 -1.625 6.6875 C-5.16545512 2.68119552 -8.68424999 0.87534876 -14 0.5 C-18.72535126 0.68104794 -20.79163664 2.63885743 -24 6 C-26.73990171 10.47922497 -26.51814896 14.89701784 -26 20 C-24.92653931 23.95562913 -23.28693687 27.42761462 -20 30 C-15.80626514 32.09686743 -10.56707523 31.40596224 -6 31 C-2.33881643 29.52268031 -0.66937602 28.50127542 0.94921875 24.87109375 C1.46771756 23.33583142 1.94117713 21.78431124 2.359375 20.21875 C3.00820076 17.97159735 3.89676728 16.05687456 5 14 C5.36937627 21.14127447 4.43970735 25.1750757 -0.375 30.75 C-5.29259294 34.96507966 -9.85747072 35.4526218 -16.15234375 35.30859375 C-22.52907116 34.61756293 -27.23773933 32.21609154 -31.5 27.4375 C-35.13944538 22.89830285 -35.46994437 18.53782713 -35.40234375 12.859375 C-34.62240918 7.316539 -31.51963442 4.10267364 -27.34765625 0.62109375 C-19.56167517 -4.26857051 -8.22403499 -3.16309038 0 0 Z " fill="#0E0E0E" transform="translate(158,156)"/>
<path d="M0 0 C6.6 0 13.2 0 20 0 C20 2.31 20 4.62 20 7 C19.62875 6.525625 19.2575 6.05125 18.875 5.5625 C16.62243117 3.4178599 16.62243117 3.4178599 11 3 C11 7.62 11 12.24 11 17 C13.660625 16.8453125 13.660625 16.8453125 16.375 16.6875 C17.37273437 16.62949219 18.37046875 16.57148438 19.3984375 16.51171875 C20.25695312 16.34285156 21.11546875 16.17398438 22 16 C22.66 15.01 23.32 14.02 24 13 C24 16.3 24 19.6 24 23 C23.34 22.34 22.68 21.68 22 21 C19.33757179 20.53709779 19.33757179 20.53709779 16.375 20.375 C13.714375 20.189375 13.714375 20.189375 11 20 C11 24.62 11 29.24 11 34 C12.876875 33.896875 14.75375 33.79375 16.6875 33.6875 C17.74324219 33.62949219 18.79898437 33.57148438 19.88671875 33.51171875 C24.88324862 32.69045725 27.46129349 30.53870651 31 27 C30.34 29.97 29.68 32.94 29 36 C19.43 36 9.86 36 0 36 C1.485 35.505 1.485 35.505 3 35 C3.07417023 30.49767666 3.1286105 25.99570909 3.16479492 21.49291992 C3.17987936 19.96128139 3.20034978 18.42968602 3.22631836 16.89819336 C3.26271847 14.69634346 3.27972913 12.49506467 3.29296875 10.29296875 C3.30845261 9.60849167 3.32393646 8.92401459 3.33988953 8.21879578 C3.37419582 6.05051099 3.37419582 6.05051099 3 3 C2.01 2.01 1.02 1.02 0 0 Z " fill="#080808" transform="translate(287,154)"/>
<path d="M0 0 C-0.556875 0.391875 -1.11375 0.78375 -1.6875 1.1875 C-6.71541303 5.1282967 -9.96708725 9.18816657 -12.6875 14.9375 C-13.01637207 15.61192139 -13.34524414 16.28634277 -13.68408203 16.98120117 C-17.15263893 24.16331494 -20.42420372 31.44144096 -23.67456055 38.72436523 C-24.07843994 39.62614502 -24.48231934 40.5279248 -24.8984375 41.45703125 C-25.25599121 42.26116455 -25.61354492 43.06529785 -25.98193359 43.89379883 C-27 46 -27 46 -29 49 C-30.77996722 45.32045237 -32.5580392 41.63999527 -34.33447266 37.95874023 C-34.93716145 36.7104512 -35.54033875 35.46239788 -36.14404297 34.21459961 C-39.54193257 27.19060394 -42.88227241 20.15379574 -46 13 C-42.37 13 -38.74 13 -35 13 C-34.75765625 13.76183594 -34.5153125 14.52367187 -34.265625 15.30859375 C-32.18291755 21.72493479 -29.89361054 27.904948 -27 34 C-24.87680172 31.34366383 -23.39771697 28.90050992 -22.16796875 25.734375 C-21.84376953 24.92613281 -21.51957031 24.11789063 -21.18554688 23.28515625 C-20.52707794 21.61256783 -19.87332446 19.93811432 -19.22460938 18.26171875 C-16.52170984 11.56022717 -13.21366817 5.50822881 -7.4375 1 C-4.76681466 -0.09566578 -2.85953422 -0.24510293 0 0 Z " fill="#0A0A0A" transform="translate(366,142)"/>
<path d="M0 0 C5.64938222 2.60740718 10.61826864 5.66726978 14 11 C14.62469626 14.20156832 14.29327592 15.48327576 12.6875 18.3125 C8.33739296 21.04396256 3.97431178 20.94923997 -1 20 C-3.96841626 18.319166 -4.35537141 17.23254585 -6 14 C-6.26236792 11.59025157 -6.2589127 9.36910602 -6.078125 6.953125 C-5.83941103 4.9190073 -5.83941103 4.9190073 -7 3 C-6.401875 2.87625 -5.80375 2.7525 -5.1875 2.625 C-2.73768652 2.04524015 -2.73768652 2.04524015 0 0 Z " fill="#F8F8F8" transform="translate(453,172)"/>
<path d="M0 0 C0.99 0.33 1.98 0.66 3 1 C2.35160156 1.82757813 1.70320313 2.65515625 1.03515625 3.5078125 C-1.37436223 7.13859377 -1.65264481 10.59616 -1.5625 14.875 C-1.55589355 15.57955322 -1.54928711 16.28410645 -1.54248047 17.01000977 C-1.33308734 22.70379073 -0.06487885 26.94743896 4 31 C6.76452033 32.38226016 9.0461363 32.09525387 12.125 32.0625 C13.22070312 32.05347656 14.31640625 32.04445312 15.4453125 32.03515625 C16.28835938 32.02355469 17.13140625 32.01195312 18 32 C17.67 33.32 17.34 34.64 17 36 C8.56273409 36.41876136 2.48014132 35.74917763 -4.75 31.3125 C-8.68599934 27.26716735 -11.17408856 22.70906931 -11.5 17 C-11.17319801 11.63412219 -9.1693503 7.08060415 -5.28125 3.3515625 C-3.4375 1.9375 -3.4375 1.9375 0 0 Z " fill="#121212" transform="translate(367,155)"/>
<path d="M0 0 C0.99 0.33 1.98 0.66 3 1 C2.34 2.0725 1.68 3.145 1 4.25 C-1.99559383 10.28398186 -2.30058946 17.03478823 -0.19921875 23.44140625 C1.38567614 26.76417816 3.05483247 29.72418873 6 32 C8.73230305 32.57775884 8.73230305 32.57775884 11.6875 32.6875 C12.68136719 32.75324219 13.67523438 32.81898438 14.69921875 32.88671875 C15.45847656 32.92410156 16.21773437 32.96148437 17 33 C16.67 33.66 16.34 34.32 16 35 C2.00933402 35.75738944 2.00933402 35.75738944 -4 31 C-8.40306043 26.58541323 -10.14865479 22.92224124 -10.3125 16.6875 C-10.24192104 10.73534135 -8.71581363 7.72999542 -4.50390625 3.49609375 C-2.9375 2.0625 -2.9375 2.0625 0 0 Z " fill="#0F0F0F" transform="translate(86,155)"/>
<path d="M0 0 C2.36252886 0.94501155 3.72796921 1.57088101 5.109375 3.75 C7.04565716 8.6416602 6.77329862 14.35057349 5.3125 19.35546875 C3.22627201 23.98863342 0.75005801 26.86732089 -4 29 C-6.875 28.25 -6.875 28.25 -9 27 C-8.38125 26.46375 -7.7625 25.9275 -7.125 25.375 C-2.9356158 20.69274707 -2.76025565 15.70645048 -2.875 9.625 C-2.89304687 8.37976563 -2.91109375 7.13453125 -2.9296875 5.8515625 C-2.95289063 4.91054687 -2.97609375 3.96953125 -3 3 C-2.34 3 -1.68 3 -1 3 C-0.67 2.01 -0.34 1.02 0 0 Z " fill="#0A0A0A" transform="translate(276,160)"/>
<path d="M0 0 C8 0 8 0 10.5 1.4375 C12.68330476 5.1673123 12.66992163 8.77014599 12 13 C11.01 14.485 11.01 14.485 10 16 C7.36 16 4.72 16 2 16 C1.67 21.28 1.34 26.56 1 32 C0.67 32 0.34 32 0 32 C0 21.44 0 10.88 0 0 Z " fill="#ECECEC" transform="translate(15,156)"/>
<path d="M0 0 C-1.3921875 0.556875 -1.3921875 0.556875 -2.8125 1.125 C-6.6587227 3.38748394 -7.35367536 4.91014465 -9 9 C-9.43324327 12.18015155 -9.43324327 12.18015155 -9.37109375 15.5 C-9.38849609 16.716875 -9.40589844 17.93375 -9.42382812 19.1875 C-9.43294267 21.72915566 -9.43815104 24.27082833 -9.43945312 26.8125 C-9.61949595 38.53390884 -9.61949595 38.53390884 -14 43 C-18.82214782 46.22151892 -24.38304397 46.46807967 -30 46 C-32.5 45 -32.5 45 -34 44 C-33.67 43.01 -33.34 42.02 -33 41 C-32.1646875 41.23783203 -32.1646875 41.23783203 -31.3125 41.48046875 C-27.22328714 42.39916015 -23.15731067 42.51188185 -19 42 C-15.90200019 39.80873184 -15.19647888 38.58943664 -14 35 C-13.90749882 32.93252693 -13.86831398 30.86249079 -13.859375 28.79296875 C-13.84003906 27.56642578 -13.82070313 26.33988281 -13.80078125 25.07617188 C-13.76708215 22.49559835 -13.74870986 19.9147766 -13.74609375 17.33398438 C-13.53668123 6.81376049 -13.53668123 6.81376049 -10.58203125 3.203125 C-4.81332024 -1.71904294 -4.81332024 -1.71904294 0 0 Z " fill="#050505" transform="translate(449,145)"/>
<path d="M0 0 C4.875 2.75 4.875 2.75 6 5 C6.54399285 9.539219 6.62289461 12.9544269 4.25 16.9375 C1.08805344 19.83595102 -0.71229307 20.86586386 -5 21.3125 C-8.30074854 20.96867203 -9.59688219 20.21826259 -12 18 C-11.67 17.34 -11.34 16.68 -11 16 C-8.69 16.33 -6.38 16.66 -4 17 C-2.69838976 13.09516929 -3.07136979 9.67355527 -3.2578125 5.59375 C-3 3 -3 3 -1.4921875 1.15625 C-0.99976563 0.7746875 -0.50734375 0.393125 0 0 Z " fill="#0A0A0A" transform="translate(29,155)"/>
<path d="M0 0 C7 0 7 0 9.4375 1.5625 C11.61999672 4.96719488 11.63734462 7.03430012 11 11 C7.57086534 14.73170537 5.00406474 15.33197842 0 17 C0 11.39 0 5.78 0 0 Z " fill="#F5F5F5" transform="translate(51,157)"/>
<path d="M0 0 C-0.556875 0.391875 -1.11375 0.78375 -1.6875 1.1875 C-7.04269619 5.38481594 -10.14123163 9.57278872 -13 15.625 C-13.34321289 16.32633057 -13.68642578 17.02766113 -14.04003906 17.75024414 C-16.48117915 22.77433089 -18.72471669 27.87046603 -20.796875 33.05859375 C-22 35 -22 35 -24.140625 35.78515625 C-24.75421875 35.85605469 -25.3678125 35.92695313 -26 36 C-22.3192665 23.87523081 -17.75966295 9.0563223 -7.4375 1 C-4.76681466 -0.09566578 -2.85953422 -0.24510293 0 0 Z " fill="#171717" transform="translate(366,142)"/>
<path d="M0 0 C0 2.97 0 5.94 0 9 C-0.53625 8.236875 -1.0725 7.47375 -1.625 6.6875 C-5.32123861 2.5049142 -8.42325235 1.20022192 -13.9375 0.5 C-18.73969309 0.64804449 -21.3959097 2.99659141 -25 6 C-26.32 4.68 -27.64 3.36 -29 2 C-20.26420838 -3.70500677 -9.6440925 -3.70926635 0 0 Z " fill="#111111" transform="translate(158,156)"/>
<path d="M0 0 C1 2 1 2 0.8125 5.8125 C0.8125 8.79511313 1.05550185 10.12421842 2.3125 12.9375 C6.46266922 16.12251359 10.89443098 15.90317024 16 16 C16.33 16.99 16.66 17.98 17 19 C11.98680673 19.35666988 8.14696097 19.56305357 3.5625 17.3125 C0.85005044 14.86467966 -0.70695409 13.42276858 -2 10 C-1.95876289 1.95876289 -1.95876289 1.95876289 0 0 Z " fill="#2B2B2B" transform="translate(447,176)"/>
<path d="M0 0 C0.33 0 0.66 0 1 0 C1 4.62 1 9.24 1 14 C2.588125 13.896875 4.17625 13.79375 5.8125 13.6875 C6.70582031 13.62949219 7.59914062 13.57148438 8.51953125 13.51171875 C11.39404181 13.15561475 11.39404181 13.15561475 14 10 C14 13.63 14 17.26 14 21 C13.01 20.01 12.02 19.02 11 18 C8.52844411 17.49787171 8.52844411 17.49787171 5.875 17.4375 C3.1796875 17.30859375 3.1796875 17.30859375 1 17 C-0.53266582 13.93466836 -0.10276471 10.73245728 -0.0625 7.375 C-0.05798828 6.66859375 -0.05347656 5.9621875 -0.04882812 5.234375 C-0.03703875 3.48954725 -0.01910324 1.744763 0 0 Z " fill="#606060" transform="translate(220,157)"/>
<path d="M0 0 C0.61875 0.33 1.2375 0.66 1.875 1 C1.545 1.66 1.215 2.32 0.875 3 C0.215 3 -0.445 3 -1.125 3 C-1.455 3.66 -1.785 4.32 -2.125 5 C-2.82625 4.505 -3.5275 4.01 -4.25 3.5 C-7.59821887 1.7531032 -9.4008163 1.44533434 -13.125 2 C-16.25657632 4.20056715 -17.00998223 5.50158965 -17.875 9.25 C-17.9575 10.1575 -18.04 11.065 -18.125 12 C-18.455 12 -18.785 12 -19.125 12 C-19.84594862 4.91067194 -19.84594862 4.91067194 -16.75 1 C-11.75350559 -2.52484285 -5.55589874 -1.7778876 0 0 Z " fill="#181818" transform="translate(390.125,155)"/>
<path d="M0 0 C1 3 1 3 -1 10 C-6.61 10 -12.22 10 -18 10 C-17.67 9.34 -17.34 8.68 -17 8 C-14.25283336 7.64127907 -11.5290723 7.55594291 -8.76171875 7.44140625 C-5.65355809 6.9446281 -4.28403895 6.12348292 -2 4 C-0.7483533 1.91665365 -0.7483533 1.91665365 0 0 Z " fill="#090909" transform="translate(240,180)"/>
<path d="M0 0 C0.79664063 0.49113281 0.79664063 0.49113281 1.609375 0.9921875 C4.62694157 2.2642989 6.98693023 2.1959363 10.25 2.125 C11.86648438 2.09792969 11.86648438 2.09792969 13.515625 2.0703125 C14.33546875 2.04710937 15.1553125 2.02390625 16 2 C15.67 3.32 15.34 4.64 15 6 C3.47835991 6.3690205 3.47835991 6.3690205 -2 4 C-1.34 2.68 -0.68 1.36 0 0 Z " fill="#141414" transform="translate(369,185)"/>
<path d="M0 0 C6.4 0.49230769 6.4 0.49230769 9.4375 3.0625 C10.2109375 4.0215625 10.2109375 4.0215625 11 5 C9.68 6.32 8.36 7.64 7 9 C5.82460004 8.07347299 4.65989423 7.13336613 3.5 6.1875 C2.52546875 5.40439453 2.52546875 5.40439453 1.53125 4.60546875 C0 3 0 3 0 0 Z " fill="#181818" transform="translate(266,155)"/>
<path d="M0 0 C0.33 0 0.66 0 1 0 C1.37120471 7.17662433 0.3905878 11.16904077 -4.375 16.8125 C-7.19582837 19.16319031 -8.38198548 19.82771359 -12 20 C-14.34165499 19.73128549 -16.67884289 19.40961596 -19 19 C-19 18.67 -19 18.34 -19 18 C-18.41992188 17.97421875 -17.83984375 17.9484375 -17.2421875 17.921875 C-11.83083506 17.52897152 -8.07426836 16.88025558 -4 13 C-2.62997399 10.07727784 -1.76580922 7.12934992 -1 4 C-0.71576172 2.87078125 -0.71576172 2.87078125 -0.42578125 1.71875 C-0.28527344 1.1515625 -0.14476562 0.584375 0 0 Z " fill="#4F4F4F" transform="translate(162,170)"/>
<path d="M0 0 C4.62 0.66 9.24 1.32 14 2 C14 2.66 14 3.32 14 4 C9.47258828 5.50913724 4.93573202 5.77429281 0.5 4 C0.005 3.67 -0.49 3.34 -1 3 C-0.67 2.01 -0.34 1.02 0 0 Z " fill="#252525" transform="translate(416,186)"/>
<path d="M0 0 C4.455 0.99 4.455 0.99 9 2 C9 4.97 9 7.94 9 11 C8.46375 10.236875 7.9275 9.47375 7.375 8.6875 C4.79794186 5.77135526 2.54185596 4.5294378 -1 3 C-0.67 2.01 -0.34 1.02 0 0 Z " fill="#262626" transform="translate(149,154)"/>
<path d="M0 0 C6.6 0 13.2 0 20 0 C20 2.31 20 4.62 20 7 C19.62875 6.525625 19.2575 6.05125 18.875 5.5625 C16.37353038 3.47794198 14.18406582 3.35378509 11 3 C11 2.67 11 2.34 11 2 C7.7 2 4.4 2 1 2 C0.67 1.34 0.34 0.68 0 0 Z " fill="#4F4F4F" transform="translate(287,154)"/>
<path d="M0 0 C4.95 0 9.9 0 15 0 C14.34 1.32 13.68 2.64 13 4 C12.71306612 6.24133258 12.51033409 8.4944319 12.375 10.75 C12.30023438 11.92046875 12.22546875 13.0909375 12.1484375 14.296875 C12.09945312 15.18890625 12.05046875 16.0809375 12 17 C11.67 17 11.34 17 11 17 C11 12.05 11 7.1 11 2 C7.37 1.67 3.74 1.34 0 1 C0 0.67 0 0.34 0 0 Z " fill="#BCBCBC" transform="translate(166,154)"/>
<path d="M0 0 C1 2 1 2 0.875 5.875 C0.80061732 9.61442026 1.55052911 11.12453417 4 14 C3.67 14.99 3.34 15.98 3 17 C-2.03350065 10.82990243 -2.03350065 10.82990243 -1.9140625 7.87109375 C-1.81867188 7.06800781 -1.72328125 6.26492187 -1.625 5.4375 C-1.53476562 4.63183594 -1.44453125 3.82617188 -1.3515625 2.99609375 C-1 1 -1 1 0 0 Z " fill="#3A3A3A" transform="translate(447,176)"/>
<path d="M0 0 C0.99 0.33 1.98 0.66 3 1 C2.6875 2.875 2.6875 2.875 2 5 C1.01 5.66 0.02 6.32 -1 7 C-2.32 5.68 -3.64 4.36 -5 3 C-2.6875 1.4375 -2.6875 1.4375 0 0 Z " fill="#1D1D1D" transform="translate(134,155)"/>
<path d="M0 0 C-0.53625 0.391875 -1.0725 0.78375 -1.625 1.1875 C-3.51698411 2.63138261 -5.27701116 4.1201881 -7.0625 5.6875 C-10 8 -10 8 -13 8 C-10.95058999 2.26165198 -5.98766709 -0.70443142 0 0 Z " fill="#2C2C2C" transform="translate(366,142)"/>
<path d="M0 0 C0.33 0 0.66 0 1 0 C1 3.3 1 6.6 1 10 C0.34 9.34 -0.32 8.68 -1 8 C-3.66242821 7.53709779 -3.66242821 7.53709779 -6.625 7.375 C-7.62789063 7.30023438 -8.63078125 7.22546875 -9.6640625 7.1484375 C-10.43492187 7.09945312 -11.20578125 7.05046875 -12 7 C-12 6.67 -12 6.34 -12 6 C-8.7 5.67 -5.4 5.34 -2 5 C-1.34 3.35 -0.68 1.7 0 0 Z " fill="#383838" transform="translate(310,167)"/>
<path d="M0 0 C0.66 0.33 1.32 0.66 2 1 C2 1.66 2 2.32 2 3 C0.824375 3.61875 0.824375 3.61875 -0.375 4.25 C-3.6733333 6.44888887 -4.07871568 8.23110958 -5 12 C-5.33 12 -5.66 12 -6 12 C-6.3125 9.3125 -6.3125 9.3125 -6 6 C-3.5625 3.1875 -3.5625 3.1875 -1 1 C-0.67 0.67 -0.34 0.34 0 0 Z " fill="#444444" transform="translate(96,154)"/>
<path d="M0 0 C0.33 0.99 0.66 1.98 1 3 C0 4 0 4 -2.50390625 4.09765625 C-4.01791016 4.08025391 -4.01791016 4.08025391 -5.5625 4.0625 C-6.57441406 4.05347656 -7.58632813 4.04445312 -8.62890625 4.03515625 C-9.41136719 4.02355469 -10.19382812 4.01195312 -11 4 C-9 1 -9 1 -6.8359375 0.48828125 C-6.02382813 0.43027344 -5.21171875 0.37226563 -4.375 0.3125 C-3.55773437 0.24675781 -2.74046875 0.18101562 -1.8984375 0.11328125 C-1.27195312 0.07589844 -0.64546875 0.03851563 0 0 Z " fill="#555555" transform="translate(384,187)"/>
<path d="M0 0 C5.75 0.75 5.75 0.75 8 3 C7.01 3.33 6.02 3.66 5 4 C4.67 4.66 4.34 5.32 4 6 C2.35 4.68 0.7 3.36 -1 2 C-0.67 1.34 -0.34 0.68 0 0 Z " fill="#212121" transform="translate(384,154)"/>
<path d="M0 0 C0.66 0.66 1.32 1.32 2 2 C-2.625 6.875 -2.625 6.875 -6 8 C-6 5 -6 5 -4.6875 3.61328125 C-3.125 2.40885417 -1.5625 1.20442708 0 0 Z " fill="#191919" transform="translate(436,182)"/>
<path d="M0 0 C1.98 0 3.96 0 6 0 C6 2.31 6 4.62 6 7 C3.95880212 5.38405168 1.95927063 3.7143618 0 2 C0 1.34 0 0.68 0 0 Z " fill="#1E1E1E" transform="translate(463,154)"/>
<path d="M0 0 C-1.423125 0.6496875 -1.423125 0.6496875 -2.875 1.3125 C-6.20041937 2.79302201 -6.20041937 2.79302201 -8 6 C-8.99 5.67 -9.98 5.34 -11 5 C-4.74206349 -1.42261905 -4.74206349 -1.42261905 0 0 Z " fill="#2E2E2E" transform="translate(449,145)"/>
<path d="M0 0 C2.97 0.495 2.97 0.495 6 1 C6 1.66 6 2.32 6 3 C7.32 3.66 8.64 4.32 10 5 C6.63295715 5.2295711 4.58629732 5.33943529 1.625 3.625 C1.08875 3.08875 0.5525 2.5525 0 2 C0 1.34 0 0.68 0 0 Z " fill="#616161" transform="translate(17,171)"/>
<path d="M0 0 C-0.33 0.99 -0.66 1.98 -1 3 C-5.25566547 4.16063604 -8.6835078 3.76173392 -13 3 C-13 2.67 -13 2.34 -13 2 C-12.06027344 1.90912109 -12.06027344 1.90912109 -11.1015625 1.81640625 C-9.87566406 1.69072266 -9.87566406 1.69072266 -8.625 1.5625 C-7.81289062 1.48128906 -7.00078125 1.40007812 -6.1640625 1.31640625 C-3.85304959 0.97851447 -2.33455672 0 0 0 Z " fill="#404040" transform="translate(156,186)"/>
<path d="M0 0 C0.99 0.33 1.98 0.66 3 1 C1 3 1 3 -1 4 C-1.33 4.99 -1.66 5.98 -2 7 C-2.99 6.67 -3.98 6.34 -5 6 C-5 5.34 -5 4.68 -5 4 C-2.6875 1.8125 -2.6875 1.8125 0 0 Z " fill="#F5F5F5" transform="translate(116,183)"/>
<path d="M0 0 C1.2077558 3.62326739 0.54311128 4.64146369 -1 8 C-1.99 8 -2.98 8 -4 8 C-2.66666667 5.33333333 -1.33333333 2.66666667 0 0 Z " fill="#393939" transform="translate(240,180)"/>
<path d="M0 0 C2.64 0 5.28 0 8 0 C7.67 0.99 7.34 1.98 7 3 C4.36 2.67 1.72 2.34 -1 2 C-0.67 1.34 -0.34 0.68 0 0 Z " fill="#0D0D0D" transform="translate(98,154)"/>
<path d="M0 0 C0.66 0.33 1.32 0.66 2 1 C1.67 2.65 1.34 4.3 1 6 C0.01 6.33 -0.98 6.66 -2 7 C-2.125 4.625 -2.125 4.625 -2 2 C-1.34 1.34 -0.68 0.68 0 0 Z " fill="#161616" transform="translate(438,150)"/>
<path d="M0 0 C0 1.65 0 3.3 0 5 C-2.64 4.34 -5.28 3.68 -8 3 C-2 0 -2 0 0 0 Z " fill="#161616" transform="translate(229,154)"/>
</svg>
