<?xml version="1.0" standalone="no"?>
<!DOCTYPE svg PUBLIC "-//W3C//DTD SVG 20010904//EN"
 "http://www.w3.org/TR/2001/REC-SVG-20010904/DTD/svg10.dtd">
<svg version="1.0" xmlns="http://www.w3.org/2000/svg"
 width="300.000000pt" height="300.000000pt" viewBox="0 0 300.000000 300.000000"
 preserveAspectRatio="xMidYMid meet">
<metadata>
Created by potrace 1.10, written by Peter Selinger 2001-2011
</metadata>
<g transform="translate(0.000000,300.000000) scale(0.100000,-0.100000)"
fill="#000000" stroke="none">
<path d="M2133 2121 c-15 -16 -41 -62 -57 -102 -16 -41 -32 -77 -36 -82 -3 -4
-18 22 -32 57 -14 35 -22 68 -17 73 4 4 -15 8 -43 9 -43 1 -49 -1 -35 -11 10
-7 39 -59 67 -116 27 -57 49 -98 50 -91 0 7 27 69 59 137 52 108 64 127 93
140 32 14 32 14 6 15 -16 0 -37 -11 -55 -29z"/>
<path d="M2643 2116 c-26 -23 -28 -29 -31 -120 -4 -85 -7 -98 -25 -111 -29
-20 -53 -19 -77 5 -16 16 -20 33 -20 93 0 40 4 77 10 83 6 6 -7 9 -35 9 -23 0
-39 -2 -34 -5 4 -3 10 -43 12 -88 3 -45 10 -89 17 -97 17 -20 76 -35 111 -28
50 10 64 36 67 127 4 109 8 123 40 140 18 10 22 15 10 16 -9 0 -30 -11 -45
-24z"/>
<path d="M1180 2100 c-15 -15 -20 -33 -20 -75 l0 -55 -50 1 -50 2 0 43 c0 27
5 46 14 51 9 5 -4 8 -34 8 -30 0 -43 -3 -34 -8 11 -6 14 -32 14 -111 0 -91 -3
-107 -22 -131 l-22 -28 30 7 c42 10 54 32 54 98 l0 58 50 0 50 0 0 -44 c0 -26
-5 -46 -12 -49 -7 -3 9 -6 36 -6 43 -1 48 1 32 12 -16 12 -18 26 -14 116 2 88
6 105 22 117 19 14 19 14 -2 14 -12 0 -31 -9 -42 -20z"/>
<path d="M60 2072 c-23 -5 -31 -10 -23 -15 9 -6 13 -36 13 -92 0 -69 -3 -86
-17 -94 -14 -8 -5 -10 37 -10 30 1 47 3 38 6 -16 4 -18 17 -18 99 l0 95 33 -3
c29 -3 32 -6 35 -40 2 -28 -1 -39 -16 -47 -11 -6 -22 -7 -26 -4 -3 3 -6 1 -6
-5 0 -12 20 -16 50 -12 44 6 65 66 37 104 -15 20 -80 29 -137 18z"/>
<path d="M250 2066 c15 -15 13 -193 -2 -199 -7 -3 10 -6 37 -6 28 0 45 3 39 7
-12 7 -18 61 -15 145 1 39 4 47 20 47 44 0 55 -65 13 -86 -22 -11 -22 -11 27
-80 27 -38 60 -75 75 -82 33 -15 110 -16 101 -2 -3 6 -16 10 -28 10 -14 0 -44
24 -84 66 l-63 66 25 20 c29 23 32 58 8 80 -20 18 -170 31 -153 14z"/>
<path d="M562 2064 c-14 -9 -22 -25 -22 -42 1 -27 1 -27 15 6 11 26 20 32 44
32 82 0 98 -148 20 -180 -64 -27 -113 17 -113 101 0 33 6 55 19 69 14 16 15
20 3 20 -36 0 -80 -76 -71 -123 24 -125 239 -121 259 5 15 87 -86 160 -154
112z"/>
<path d="M804 2066 c-43 -19 -64 -53 -64 -104 0 -52 29 -85 87 -101 80 -22
140 12 149 85 l5 39 -18 -45 c-29 -71 -101 -93 -148 -45 -35 34 -35 112 -2
143 33 31 81 29 112 -4 l25 -27 0 27 c0 19 -7 29 -26 36 -35 14 -83 12 -120
-4z"/>
<path d="M1266 2067 c19 -11 20 -193 2 -200 -7 -3 28 -6 78 -6 l92 -1 4 31 5
31 -17 -22 c-13 -18 -28 -23 -61 -24 l-44 -1 -3 43 c-3 40 -2 42 24 42 15 0
35 -6 43 -14 14 -13 16 -11 16 19 0 30 -2 32 -16 19 -8 -8 -28 -14 -42 -14
-25 0 -27 3 -27 45 0 39 3 45 20 45 12 0 24 -10 30 -22 8 -21 9 -21 9 7 l1 30
-64 0 c-38 0 -59 -3 -50 -8z"/>
<path d="M1731 2066 c14 -15 12 -193 -3 -199 -7 -3 28 -6 78 -6 87 -1 92 0 98
22 9 36 7 37 -19 12 -16 -17 -35 -25 -60 -25 -35 0 -35 0 -35 45 0 41 2 45 24
45 14 0 32 -7 40 -16 15 -14 16 -12 16 21 0 33 -1 35 -16 21 -8 -9 -26 -16
-40 -16 -22 0 -24 4 -24 45 0 48 19 62 39 28 9 -16 10 -15 11 7 0 25 -2 26
-59 25 -38 0 -56 -4 -50 -9z"/>
<path d="M2240 2060 c-21 -21 -27 -60 -9 -60 5 0 8 4 5 8 -10 16 25 52 50 52
40 0 64 -33 64 -90 0 -41 -5 -56 -25 -75 -24 -24 -57 -31 -90 -19 -41 16 -60
127 -29 172 13 19 13 22 0 22 -26 0 -66 -59 -66 -96 0 -62 28 -96 93 -114 141
-40 235 139 107 205 -40 21 -76 19 -100 -5z"/>
<path d="M2710 2060 c-37 -37 -21 -74 49 -116 59 -35 50 -94 -15 -94 -42 0
-68 34 -58 75 5 20 4 26 -5 21 -20 -13 -13 -71 12 -94 51 -48 147 -13 147 53
0 34 -36 74 -88 98 -15 7 -22 18 -20 31 4 27 44 33 69 10 18 -16 19 -16 19 9
0 25 -3 27 -45 27 -32 0 -51 -6 -65 -20z"/>
<path d="M1430 2050 c-11 -11 -20 -26 -20 -32 1 -9 5 -8 13 3 11 15 49 39 61
39 3 0 6 -42 6 -94 0 -66 -4 -96 -12 -99 -7 -3 20 -6 60 -6 113 -1 152 27 152
109 0 33 -6 48 -29 71 -28 28 -33 29 -120 29 -78 0 -94 -3 -111 -20z m184 -11
c22 -17 26 -28 26 -69 0 -60 -23 -91 -68 -93 l-33 -2 0 88 c0 48 0 89 1 92 1
13 50 3 74 -16z"/>
</g>
</svg>
